<?xml version="1.0" encoding="utf-8"?>
<!-- Generator: Adobe Illustrator 19.0.0, SVG Export Plug-In . SVG Version: 6.00 Build 0)  -->
<svg version="1.1" id="Layer_1" xmlns="http://www.w3.org/2000/svg" xmlns:xlink="http://www.w3.org/1999/xlink" x="0px" y="0px"
	 width="140px" height="140px" viewBox="0 0 140 140" style="enable-background:new 0 0 140 140;" xml:space="preserve">
<style type="text/css">
	.st0{fill:none;stroke:#4B90CD;stroke-width:8;stroke-linecap:round;stroke-linejoin:round;stroke-miterlimit:10;}
	.st1{fill:#4B90CD;}
</style>
<g id="XMLID_1_">
	<g id="XMLID_104_">
		<path id="XMLID_109_" class="st0" d="M13.7538433,8.7076893h112.4923096C130.5284882,8.7076893,134,12.179204,134,16.4615364
			v88.8615417c0,4.2823257-3.4715118,7.7538452-7.7538452,7.7538452H13.7538433
			c-4.2823315,0-7.7538466-3.4715195-7.7538466-7.7538452V16.4615364C5.9999967,12.179204,9.4715118,8.7076893,13.7538433,8.7076893
			z"/>
		<path id="XMLID_108_" class="st0" d="M70,113.0769272v18.2153854V113.0769272z"/>
		<path id="XMLID_107_" class="st0" d="M29.6307678,131.2923126h80.7384644H29.6307678z"/>
		<path id="XMLID_106_" class="st0" d="M70,101.0153885L70,101.0153885L70,101.0153885z"/>
		<path id="XMLID_105_" class="st0" d="M5.9999967,88.707695h128H5.9999967z"/>
	</g>
	<g id="XMLID_36_">
		<rect id="XMLID_46_" x="43.4153824" y="16.338459" class="st1" width="5.9076924" height="5.9076924"/>
		<rect id="XMLID_45_" x="55.2307701" y="16.338459" class="st1" width="5.9076924" height="5.9076924"/>
		<rect id="XMLID_44_" x="67.0461502" y="16.338459" class="st1" width="5.9076924" height="5.9076924"/>
		<rect id="XMLID_43_" x="78.8615417" y="16.338459" class="st1" width="5.9076924" height="5.9076924"/>
		<rect id="XMLID_42_" x="102.4918289" y="16.338459" class="st1" width="5.2519236" height="5.9076924"/>
		<rect id="XMLID_41_" x="90.6769257" y="16.338459" class="st1" width="5.9072118" height="5.9076924"/>
		<rect id="XMLID_40_" x="32.2562485" y="16.338459" class="st1" width="5.2514424" height="5.9076924"/>
		<rect id="XMLID_39_" x="32.2562485" y="28.1538429" class="st1" width="5.2514424" height="5.9076924"/>
		<rect id="XMLID_38_" x="102.4918289" y="28.1538429" class="st1" width="5.2519236" height="5.9076924"/>
		<rect id="XMLID_37_" x="90.6769257" y="28.1538429" class="st1" width="5.9072118" height="5.9076924"/>
		<rect id="XMLID_67_" x="43.4153824" y="28.1538429" class="st1" width="5.9076924" height="5.9076924"/>
		<rect id="XMLID_68_" x="78.8615417" y="28.1538429" class="st1" width="5.9076924" height="5.9076924"/>
		<rect id="XMLID_69_" x="67.0461502" y="28.1538429" class="st1" width="5.9076924" height="5.9076924"/>
		<rect id="XMLID_70_" x="55.2307701" y="28.1538429" class="st1" width="5.9076924" height="5.9076924"/>
		<rect id="XMLID_71_" x="67.0461502" y="39.9692307" class="st1" width="5.9076924" height="5.9076924"/>
		<rect id="XMLID_72_" x="102.4918289" y="39.9692307" class="st1" width="5.2519236" height="5.9076924"/>
		<rect id="XMLID_73_" x="43.4153824" y="39.9692307" class="st1" width="5.9076924" height="5.9076924"/>
		<rect id="XMLID_74_" x="90.6769257" y="39.9692307" class="st1" width="5.9072118" height="5.9076924"/>
		<rect id="XMLID_75_" x="55.2307701" y="39.9692307" class="st1" width="5.9076924" height="5.9076924"/>
		<rect id="XMLID_76_" x="32.2562485" y="39.9692307" class="st1" width="5.2514424" height="5.9076924"/>
		<rect id="XMLID_77_" x="78.8615417" y="39.9692307" class="st1" width="5.9076924" height="5.9076924"/>
		<rect id="XMLID_78_" x="102.4918289" y="51.7846146" class="st1" width="5.2519236" height="5.9076924"/>
		<rect id="XMLID_79_" x="67.0461502" y="51.7846146" class="st1" width="5.9076924" height="5.9076924"/>
		<rect id="XMLID_80_" x="78.8615417" y="51.7846146" class="st1" width="5.9076924" height="5.9076924"/>
		<rect id="XMLID_81_" x="32.2562485" y="51.7846146" class="st1" width="5.2514424" height="5.9076924"/>
		<rect id="XMLID_82_" x="55.2307701" y="51.7846146" class="st1" width="5.9076924" height="5.9076924"/>
		<rect id="XMLID_83_" x="43.4153824" y="51.7846146" class="st1" width="5.9076924" height="5.9076924"/>
		<rect id="XMLID_84_" x="90.6769257" y="51.7846146" class="st1" width="5.9072118" height="5.9076924"/>
		<rect id="XMLID_85_" x="43.4153824" y="63.5999985" class="st1" width="5.9076924" height="5.9076924"/>
		<rect id="XMLID_86_" x="102.4918289" y="63.5999985" class="st1" width="5.2519236" height="5.9076924"/>
		<rect id="XMLID_87_" x="55.2307701" y="63.5999985" class="st1" width="5.9076924" height="5.9076924"/>
		<rect id="XMLID_88_" x="32.2562485" y="63.5999985" class="st1" width="5.2514424" height="5.9076924"/>
		<rect id="XMLID_89_" x="78.8615417" y="63.5999985" class="st1" width="5.9076924" height="5.9076924"/>
		<rect id="XMLID_90_" x="90.6769257" y="63.5999985" class="st1" width="5.9072118" height="5.9076924"/>
		<rect id="XMLID_91_" x="67.0461502" y="63.5999985" class="st1" width="5.9076924" height="5.9076924"/>
		<rect id="XMLID_92_" x="90.6769257" y="75.4153824" class="st1" width="5.9072118" height="5.9076924"/>
		<rect id="XMLID_93_" x="102.4918289" y="75.4153824" class="st1" width="5.2519236" height="5.9076924"/>
		<rect id="XMLID_94_" x="32.2562485" y="75.4153824" class="st1" width="5.2514424" height="5.9076924"/>
		<rect id="XMLID_95_" x="43.4153824" y="75.4153824" class="st1" width="5.9076924" height="5.9076924"/>
		<rect id="XMLID_96_" x="78.8615417" y="75.4153824" class="st1" width="5.9076924" height="5.9076924"/>
		<rect id="XMLID_97_" x="55.2307701" y="75.4153824" class="st1" width="5.9076924" height="5.9076924"/>
		<rect id="XMLID_98_" x="67.0461502" y="75.4153824" class="st1" width="5.9076924" height="5.9076924"/>
		<rect id="XMLID_99_" x="37.5076904" y="45.8769226" class="st1" width="5.9076924" height="5.9076924"/>
		<rect id="XMLID_100_" x="37.5076904" y="69.5076904" class="st1" width="5.9076924" height="5.9076924"/>
		<rect id="XMLID_101_" x="37.5076904" y="57.6923065" class="st1" width="5.9076924" height="5.9076924"/>
		<rect id="XMLID_102_" x="37.5076904" y="22.246151" class="st1" width="5.9076924" height="5.9076924"/>
		<rect id="XMLID_103_" x="37.5076904" y="34.0615349" class="st1" width="5.9076924" height="5.9076924"/>
		<rect id="XMLID_110_" x="49.3230743" y="45.8769226" class="st1" width="5.9076924" height="5.9076924"/>
		<rect id="XMLID_111_" x="49.3230743" y="57.6923065" class="st1" width="5.9076924" height="5.9076924"/>
		<rect id="XMLID_112_" x="49.3230743" y="34.0615349" class="st1" width="5.9076924" height="5.9076924"/>
		<rect id="XMLID_113_" x="49.3230743" y="22.246151" class="st1" width="5.9076924" height="5.9076924"/>
		<rect id="XMLID_114_" x="49.3230743" y="69.5076904" class="st1" width="5.9076924" height="5.9076924"/>
		<rect id="XMLID_121_" x="61.1384621" y="22.246151" class="st1" width="5.9076924" height="5.9076924"/>
		<rect id="XMLID_122_" x="61.1384621" y="57.6923065" class="st1" width="5.9076924" height="5.9076924"/>
		<rect id="XMLID_123_" x="61.1384621" y="34.0615349" class="st1" width="5.9076924" height="5.9076924"/>
		<rect id="XMLID_124_" x="61.1384621" y="69.5076904" class="st1" width="5.9076924" height="5.9076924"/>
		<rect id="XMLID_125_" x="61.1384621" y="45.8769226" class="st1" width="5.9076924" height="5.9076924"/>
		<rect id="XMLID_132_" x="72.9538498" y="22.246151" class="st1" width="5.9076924" height="5.9076924"/>
		<rect id="XMLID_133_" x="72.9538498" y="34.0615349" class="st1" width="5.9076924" height="5.9076924"/>
		<rect id="XMLID_134_" x="72.9538498" y="69.5076904" class="st1" width="5.9076924" height="5.9076924"/>
		<rect id="XMLID_135_" x="72.9538498" y="57.6923065" class="st1" width="5.9076924" height="5.9076924"/>
		<rect id="XMLID_136_" x="72.9538498" y="45.8769226" class="st1" width="5.9076924" height="5.9076924"/>
		<rect id="XMLID_143_" x="84.7692337" y="69.5076904" class="st1" width="5.9076924" height="5.9076924"/>
		<rect id="XMLID_144_" x="84.7692337" y="45.8769226" class="st1" width="5.9076924" height="5.9076924"/>
		<rect id="XMLID_145_" x="84.7692337" y="34.0615349" class="st1" width="5.9076924" height="5.9076924"/>
		<rect id="XMLID_146_" x="84.7692337" y="22.246151" class="st1" width="5.9076924" height="5.9076924"/>
		<rect id="XMLID_147_" x="84.7692337" y="57.6923065" class="st1" width="5.9076924" height="5.9076924"/>
		<rect id="XMLID_154_" x="96.584137" y="45.8769226" class="st1" width="5.9076924" height="5.9076924"/>
		<rect id="XMLID_155_" x="96.584137" y="22.246151" class="st1" width="5.9076924" height="5.9076924"/>
		<rect id="XMLID_156_" x="96.584137" y="57.6923065" class="st1" width="5.9076924" height="5.9076924"/>
		<rect id="XMLID_157_" x="96.584137" y="34.0615349" class="st1" width="5.9076924" height="5.9076924"/>
		<rect id="XMLID_158_" x="96.584137" y="69.5076904" class="st1" width="5.9076924" height="5.9076924"/>
	</g>
</g>
</svg>
