<svg width="100" height="100" viewBox="0 0 100 100" fill="none" xmlns="http://www.w3.org/2000/svg">
<path d="M82.4583 62.2083C73.875 70.7499 61.5833 73.3749 50.7917 69.9999L31.1667 89.5833C29.75 91.0416 26.9583 91.9166 24.9583 91.6249L15.875 90.3749C12.875 89.9583 10.0833 87.1249 9.625 84.1249L8.375 75.0416C8.08334 73.0416 9.04167 70.2499 10.4167 68.8333L30 49.2499C26.6667 38.4166 29.25 26.1249 37.8333 17.5833C50.125 5.29159 70.0833 5.29159 82.4167 17.5833C94.75 29.8749 94.75 49.9166 82.4583 62.2083Z" stroke="#6D6FFF" stroke-width="1.5" stroke-miterlimit="10" stroke-linecap="round" stroke-linejoin="round"/>
<path d="M28.7083 72.875L38.2917 82.4583" stroke="#6D6FFF" stroke-width="1.5" stroke-miterlimit="10" stroke-linecap="round" stroke-linejoin="round"/>
<path d="M60.4167 45.8333C63.8684 45.8333 66.6667 43.035 66.6667 39.5833C66.6667 36.1315 63.8684 33.3333 60.4167 33.3333C56.9649 33.3333 54.1667 36.1315 54.1667 39.5833C54.1667 43.035 56.9649 45.8333 60.4167 45.8333Z" stroke="#6D6FFF" stroke-width="1.5" stroke-linecap="round" stroke-linejoin="round"/>
</svg>
