<?xml version="1.0" encoding="utf-8"?>
<!-- Generator: Adobe Illustrator 19.0.0, SVG Export Plug-In . SVG Version: 6.00 Build 0)  -->
<svg version="1.1" id="Layer_1" xmlns="http://www.w3.org/2000/svg" xmlns:xlink="http://www.w3.org/1999/xlink" x="0px" y="0px"
	 width="300px" height="300px" viewBox="-155 247 300 300" style="enable-background:new -155 247 300 300;" xml:space="preserve">
<style type="text/css">
	.st0{fill:none;stroke:#ffce31;stroke-width:24;stroke-linecap:round;stroke-linejoin:round;stroke-miterlimit:10;}
</style>
<g id="Group_1062" transform="translate(-119.191 -463.009) rotate(30)">
	<path id="Path_1253" class="st0" d="M502.7836609,755.7769775l-0.0000305-96.786499
		c0-21.3688965,10.8759155-38.7111816,32.2623291-38.7111816s32.2623901,17.4295654,32.2623901,38.7111816V781.625061
		c3.3600464,28.5076294-17.0263672,54.3413086-45.5339966,57.701416
		c-28.5075989,3.3600464-54.3413086-17.0263672-57.701355-45.5339966c-0.476593-4.0419922-0.476593-8.1254272,0-12.1674194
		l-0.0000305-161.3106689c-3.4776306-39.1973877,25.4794312-73.7921143,64.6767883-77.2697754
		c39.1973877-3.4776001,73.7921143,25.4789429,77.2697754,64.6768188c0.3717651,4.1893311,0.3718262,8.4036255,0,12.5929565
		v116.1506348"/>
</g>
</svg>
