<svg width="163" height="29" viewBox="0 0 163 29" fill="none" xmlns="http://www.w3.org/2000/svg">
<path d="M18.04 3.57V7.525H11.53V28H6.63V7.525H0.12V3.57H18.04ZM26.5152 11.62C27.1452 10.5933 27.9619 9.78833 28.9652 9.205C29.9919 8.62167 31.1585 8.33 32.4652 8.33V13.475H31.1702C29.6302 13.475 28.4635 13.8367 27.6702 14.56C26.9002 15.2833 26.5152 16.5433 26.5152 18.34V28H21.6152V8.61H26.5152V11.62ZM34.5056 18.235C34.5056 16.275 34.8906 14.5367 35.6606 13.02C36.4539 11.5033 37.5156 10.3367 38.8456 9.52C40.1989 8.70333 41.7039 8.295 43.3606 8.295C44.8073 8.295 46.0673 8.58667 47.1406 9.17C48.2373 9.75333 49.1123 10.4883 49.7656 11.375V8.61H54.7006V28H49.7656V25.165C49.1356 26.075 48.2606 26.8333 47.1406 27.44C46.0439 28.0233 44.7723 28.315 43.3256 28.315C41.6923 28.315 40.1989 27.895 38.8456 27.055C37.5156 26.215 36.4539 25.0367 35.6606 23.52C34.8906 21.98 34.5056 20.2183 34.5056 18.235ZM49.7656 18.305C49.7656 17.115 49.5323 16.1 49.0656 15.26C48.5989 14.3967 47.9689 13.7433 47.1756 13.3C46.3823 12.8333 45.5306 12.6 44.6206 12.6C43.7106 12.6 42.8706 12.8217 42.1006 13.265C41.3306 13.7083 40.7006 14.3617 40.2106 15.225C39.7439 16.065 39.5106 17.0683 39.5106 18.235C39.5106 19.4017 39.7439 20.4283 40.2106 21.315C40.7006 22.1783 41.3306 22.8433 42.1006 23.31C42.8939 23.7767 43.7339 24.01 44.6206 24.01C45.5306 24.01 46.3823 23.7883 47.1756 23.345C47.9689 22.8783 48.5989 22.225 49.0656 21.385C49.5323 20.5217 49.7656 19.495 49.7656 18.305ZM58.2263 18.305C58.2263 16.2983 58.6346 14.5483 59.4513 13.055C60.268 11.5383 61.3996 10.3717 62.8463 9.555C64.293 8.715 65.9496 8.295 67.8163 8.295C70.2196 8.295 72.203 8.90167 73.7663 10.115C75.353 11.305 76.4146 12.985 76.9513 15.155H71.6663C71.3863 14.315 70.908 13.6617 70.2313 13.195C69.578 12.705 68.7613 12.46 67.7813 12.46C66.3813 12.46 65.273 12.9733 64.4563 14C63.6396 15.0033 63.2313 16.4383 63.2313 18.305C63.2313 20.1483 63.6396 21.5833 64.4563 22.61C65.273 23.6133 66.3813 24.115 67.7813 24.115C69.7646 24.115 71.0596 23.2283 71.6663 21.455H76.9513C76.4146 23.555 75.353 25.2233 73.7663 26.46C72.1796 27.6967 70.1963 28.315 67.8163 28.315C65.9496 28.315 64.293 27.9067 62.8463 27.09C61.3996 26.25 60.268 25.0833 59.4513 23.59C58.6346 22.0733 58.2263 20.3117 58.2263 18.305ZM92.021 28L85.441 19.74V28H80.541V2.1H85.441V16.835L91.951 8.61H98.321L89.781 18.34L98.391 28H92.021ZM108.4 28.315C106.814 28.315 105.39 28.035 104.13 27.475C102.87 26.8917 101.867 26.11 101.12 25.13C100.397 24.15 100 23.065 99.9304 21.875H104.865C104.959 22.6217 105.32 23.24 105.95 23.73C106.604 24.22 107.409 24.465 108.365 24.465C109.299 24.465 110.022 24.2783 110.535 23.905C111.072 23.5317 111.34 23.0533 111.34 22.47C111.34 21.84 111.014 21.3733 110.36 21.07C109.73 20.7433 108.715 20.3933 107.315 20.02C105.869 19.67 104.679 19.3083 103.745 18.935C102.835 18.5617 102.042 17.99 101.365 17.22C100.712 16.45 100.385 15.4117 100.385 14.105C100.385 13.0317 100.689 12.0517 101.295 11.165C101.925 10.2783 102.812 9.57833 103.955 9.065C105.122 8.55167 106.487 8.295 108.05 8.295C110.36 8.295 112.204 8.87833 113.58 10.045C114.957 11.1883 115.715 12.74 115.855 14.7H111.165C111.095 13.93 110.769 13.3233 110.185 12.88C109.625 12.4133 108.867 12.18 107.91 12.18C107.024 12.18 106.335 12.3433 105.845 12.67C105.379 12.9967 105.145 13.4517 105.145 14.035C105.145 14.6883 105.472 15.19 106.125 15.54C106.779 15.8667 107.794 16.205 109.17 16.555C110.57 16.905 111.725 17.2667 112.635 17.64C113.545 18.0133 114.327 18.5967 114.98 19.39C115.657 20.16 116.007 21.1867 116.03 22.47C116.03 23.59 115.715 24.5933 115.085 25.48C114.479 26.3667 113.592 27.0667 112.425 27.58C111.282 28.07 109.94 28.315 108.4 28.315ZM138.358 8.61V28H133.423V25.55C132.793 26.39 131.964 27.055 130.938 27.545C129.934 28.0117 128.838 28.245 127.648 28.245C126.131 28.245 124.789 27.93 123.623 27.3C122.456 26.6467 121.534 25.7017 120.858 24.465C120.204 23.205 119.878 21.7117 119.878 19.985V8.61H124.778V19.285C124.778 20.825 125.163 22.015 125.933 22.855C126.703 23.6717 127.753 24.08 129.083 24.08C130.436 24.08 131.498 23.6717 132.268 22.855C133.038 22.015 133.423 20.825 133.423 19.285V8.61H138.358ZM145.677 6.3C144.814 6.3 144.091 6.03167 143.507 5.495C142.947 4.935 142.667 4.24667 142.667 3.43C142.667 2.61333 142.947 1.93666 143.507 1.4C144.091 0.839999 144.814 0.559999 145.677 0.559999C146.541 0.559999 147.252 0.839999 147.812 1.4C148.396 1.93666 148.687 2.61333 148.687 3.43C148.687 4.24667 148.396 4.935 147.812 5.495C147.252 6.03167 146.541 6.3 145.677 6.3ZM148.092 8.61V28H143.192V8.61H148.092ZM158.639 12.635V22.015C158.639 22.6683 158.79 23.1467 159.094 23.45C159.42 23.73 159.957 23.87 160.704 23.87H162.979V28H159.899C155.769 28 153.704 25.9933 153.704 21.98V12.635H151.394V8.61H153.704V3.815H158.639V8.61H162.979V12.635H158.639Z" fill="black"/>
</svg>
