<svg width="20" height="20" viewBox="0 0 20 20" fill="none" xmlns="http://www.w3.org/2000/svg">
<g clip-path="url(#clip0_241_57)">
<mask id="mask0_241_57" style="mask-type:luminance" maskUnits="userSpaceOnUse" x="0" y="0" width="20" height="20">
<path d="M20 0H0V20H20V0Z" fill="white"/>
</mask>
<g mask="url(#mask0_241_57)">
<mask id="mask1_241_57" style="mask-type:luminance" maskUnits="userSpaceOnUse" x="0" y="0" width="20" height="20">
<path d="M20 0H0V20H20V0Z" fill="white"/>
</mask>
<g mask="url(#mask1_241_57)">
<mask id="mask2_241_57" style="mask-type:luminance" maskUnits="userSpaceOnUse" x="0" y="0" width="20" height="20">
<path d="M20 0H0V20H20V0Z" fill="white"/>
</mask>
<g mask="url(#mask2_241_57)">
<path d="M18.3336 13.491C18.3336 16.5243 16.5253 18.3327 13.4919 18.3327H12.5003C12.2793 18.3327 12.0673 18.2449 11.911 18.0886C11.7547 17.9323 11.6669 17.7203 11.6669 17.4993V12.691C11.6669 12.5819 11.7097 12.4772 11.786 12.3993C11.8624 12.3214 11.9662 12.2765 12.0753 12.2743L13.5419 12.2493C13.5993 12.2454 13.6539 12.223 13.6975 12.1855C13.7411 12.1479 13.7713 12.0972 13.7836 12.041L14.0753 10.4493C14.0814 10.4132 14.0795 10.3762 14.0697 10.3408C14.0599 10.3055 14.0424 10.2728 14.0186 10.2449C13.9947 10.2171 13.9651 10.1949 13.9317 10.1798C13.8982 10.1647 13.8619 10.1572 13.8253 10.1577L12.0503 10.1827C11.9403 10.1832 11.8344 10.1408 11.7551 10.0646C11.6757 9.98841 11.6292 9.88429 11.6253 9.77435L11.5919 7.73269C11.5919 7.66639 11.6183 7.6028 11.6652 7.55591C11.7121 7.50903 11.7756 7.48269 11.8419 7.48269L13.8419 7.44936C13.9082 7.44936 13.9718 7.42302 14.0187 7.37613C14.0656 7.32925 14.0919 7.26566 14.0919 7.19936L14.0586 5.19936C14.0586 5.13305 14.0323 5.06946 13.9854 5.02258C13.9385 4.9757 13.8749 4.94936 13.8086 4.94936L11.5586 4.98269C11.2303 4.98812 10.9063 5.05817 10.605 5.18884C10.3038 5.31952 10.0312 5.50826 9.80299 5.74429C9.5747 5.98031 9.39515 6.259 9.27458 6.56442C9.15402 6.86985 9.0948 7.19604 9.10032 7.52436L9.14199 9.81602C9.14309 9.87074 9.13341 9.92515 9.11348 9.97612C9.09356 10.0271 9.06378 10.0736 9.02587 10.1131C8.98795 10.1526 8.94262 10.1842 8.89248 10.2061C8.84235 10.2281 8.78837 10.2399 8.73365 10.241L7.73365 10.2577C7.66735 10.2577 7.60376 10.284 7.55688 10.3309C7.50999 10.3778 7.48365 10.4414 7.48365 10.5077L7.50865 12.091C7.50865 12.1573 7.53499 12.2209 7.58188 12.2678C7.62876 12.3147 7.69235 12.341 7.75865 12.341L8.75865 12.3243C8.86867 12.3238 8.97455 12.3662 9.05388 12.4424C9.13321 12.5186 9.17976 12.6227 9.18365 12.7327L9.25865 17.4827C9.26087 17.5935 9.24095 17.7037 9.20007 17.8067C9.15918 17.9097 9.09815 18.0036 9.02055 18.0827C8.94294 18.1619 8.85033 18.2248 8.74812 18.2677C8.64591 18.3106 8.53617 18.3327 8.42532 18.3327H6.50865C3.47532 18.3327 1.66699 16.5243 1.66699 13.4827V6.50769C1.66699 3.47436 3.47532 1.66602 6.50865 1.66602H13.4919C16.5253 1.66602 18.3336 3.47436 18.3336 6.50769V13.491Z" fill="#FABD6B"/>
</g>
</g>
</g>
</g>
<defs>
<clipPath id="clip0_241_57">
<rect width="20" height="20" fill="white"/>
</clipPath>
</defs>
</svg>
