<svg width="20" height="20" viewBox="0 0 20 20" fill="none" xmlns="http://www.w3.org/2000/svg">
<g clip-path="url(#clip0_241_85)">
<mask id="mask0_241_85" style="mask-type:luminance" maskUnits="userSpaceOnUse" x="0" y="0" width="20" height="20">
<path d="M20 0H0V20H20V0Z" fill="white"/>
</mask>
<g mask="url(#mask0_241_85)">
<mask id="mask1_241_85" style="mask-type:luminance" maskUnits="userSpaceOnUse" x="0" y="0" width="20" height="20">
<path d="M20 0H0V20H20V0Z" fill="white"/>
</mask>
<g mask="url(#mask1_241_85)">
<mask id="mask2_241_85" style="mask-type:luminance" maskUnits="userSpaceOnUse" x="0" y="0" width="20" height="20">
<path d="M20 0H0V20H20V0Z" fill="white"/>
</mask>
<g mask="url(#mask2_241_85)">
<path d="M13.4919 1.66602H6.50865C3.47532 1.66602 1.66699 3.47436 1.66699 6.50769V13.4827C1.66699 16.5243 3.47532 18.3327 6.50865 18.3327H13.4836C16.5169 18.3327 18.3253 16.5243 18.3253 13.491V6.50769C18.3336 3.47436 16.5253 1.66602 13.4919 1.66602ZM10.0003 13.2327C9.36083 13.2327 8.7357 13.043 8.20398 12.6878C7.67226 12.3325 7.25783 11.8275 7.01311 11.2367C6.76839 10.6459 6.70436 9.99577 6.82912 9.36857C6.95387 8.74136 7.26182 8.16524 7.71401 7.71305C8.1662 7.26086 8.74232 6.95291 9.36953 6.82815C9.99673 6.70339 10.6468 6.76742 11.2376 7.01215C11.8284 7.25687 12.3334 7.67129 12.6887 8.20301C13.044 8.73473 13.2336 9.35986 13.2336 9.99936C13.2327 10.8566 12.8918 11.6785 12.2856 12.2847C11.6794 12.8909 10.8575 13.2318 10.0003 13.2327ZM14.9336 5.73269C14.8913 5.83364 14.8322 5.92664 14.7586 6.00769C14.6776 6.08123 14.5846 6.14042 14.4836 6.18269C14.3321 6.24763 14.1645 6.26567 14.0026 6.23447C13.8407 6.20328 13.6919 6.12429 13.5753 6.00769C13.5017 5.92664 13.4426 5.83364 13.4003 5.73269C13.3563 5.6329 13.3337 5.52506 13.3337 5.41602C13.3337 5.30699 13.3563 5.19915 13.4003 5.09936C13.4406 4.99737 13.5 4.90403 13.5753 4.82436C13.6723 4.72828 13.7914 4.65752 13.9222 4.61828C14.053 4.57905 14.1914 4.57255 14.3253 4.59936C14.3805 4.60708 14.434 4.62398 14.4836 4.64936C14.5367 4.66757 14.5872 4.69279 14.6336 4.72436C14.6773 4.75512 14.719 4.78851 14.7586 4.82436C14.8339 4.90403 14.8933 4.99737 14.9336 5.09936C14.9776 5.19915 15.0002 5.30699 15.0002 5.41602C15.0002 5.52506 14.9776 5.6329 14.9336 5.73269Z" fill="#FABD6B"/>
</g>
</g>
</g>
</g>
<defs>
<clipPath id="clip0_241_85">
<rect width="20" height="20" fill="white"/>
</clipPath>
</defs>
</svg>
