<svg width="20" height="20" viewBox="0 0 20 20" fill="none" xmlns="http://www.w3.org/2000/svg">
<g clip-path="url(#clip0_241_99)">
<mask id="mask0_241_99" style="mask-type:luminance" maskUnits="userSpaceOnUse" x="0" y="0" width="20" height="20">
<path d="M20 0H0V20H20V0Z" fill="white"/>
</mask>
<g mask="url(#mask0_241_99)">
<mask id="mask1_241_99" style="mask-type:luminance" maskUnits="userSpaceOnUse" x="0" y="0" width="20" height="20">
<path d="M20 0H0V20H20V0Z" fill="white"/>
</mask>
<g mask="url(#mask1_241_99)">
<mask id="mask2_241_99" style="mask-type:luminance" maskUnits="userSpaceOnUse" x="0" y="0" width="20" height="20">
<path d="M20 0H0V20H20V0Z" fill="white"/>
</mask>
<g mask="url(#mask2_241_99)">
<path d="M13.4834 18.3332H6.50928C3.47761 18.3332 1.66675 16.5198 1.66675 13.4832V6.50818C1.66675 3.47652 3.47678 1.66652 6.50928 1.66652H13.4925C14.1414 1.63338 14.7904 1.72995 15.4015 1.95059C16.0126 2.17122 16.5736 2.5115 17.0517 2.95151C17.4897 3.42978 17.8282 3.99059 18.047 4.60114C18.2657 5.21168 18.3605 5.85973 18.3259 6.50737V13.4907C18.3251 16.5232 16.515 18.3332 13.4834 18.3332ZM12.0759 9.30817C12.7042 9.30817 13.3375 9.79484 13.3375 10.8815V14.5049H15.4892V10.134C15.5284 9.78256 15.4918 9.42673 15.3818 9.09063C15.2717 8.75453 15.0909 8.44599 14.8514 8.18579C14.6118 7.92558 14.3193 7.7198 13.9934 7.58235C13.6676 7.4449 13.316 7.37897 12.9625 7.38902C12.5242 7.37028 12.0886 7.46574 11.6983 7.66602C11.3079 7.8663 10.9764 8.16451 10.736 8.5315V7.60153H8.59342V14.504H10.7368V10.8807C10.7153 10.6884 10.7334 10.4937 10.7901 10.3086C10.8467 10.1235 10.9407 9.95204 11.0662 9.80469C11.1916 9.65735 11.346 9.53725 11.5197 9.45186C11.6933 9.36647 11.8826 9.31756 12.0759 9.30817ZM5.13599 7.60234V14.5049H7.29337V7.60234H5.13599ZM6.21509 4.58318C5.93034 4.58473 5.6578 4.6991 5.45723 4.90123C5.25666 5.10336 5.14448 5.37677 5.14514 5.66152C5.14448 5.94628 5.25666 6.21969 5.45723 6.42182C5.6578 6.62395 5.93034 6.73832 6.21509 6.73986C6.49976 6.73832 6.7721 6.62392 6.97253 6.42177C7.17297 6.21961 7.28511 5.9462 7.28422 5.66152C7.28511 5.37685 7.17297 5.10343 6.97253 4.90128C6.7721 4.69912 6.49976 4.58473 6.21509 4.58318Z" fill="#FABD6B"/>
</g>
</g>
</g>
</g>
<defs>
<clipPath id="clip0_241_99">
<rect width="20" height="20" fill="white"/>
</clipPath>
</defs>
</svg>
