<svg width="20" height="20" viewBox="0 0 20 20" fill="none" xmlns="http://www.w3.org/2000/svg">
<g clip-path="url(#clip0_241_71)">
<mask id="mask0_241_71" style="mask-type:luminance" maskUnits="userSpaceOnUse" x="0" y="0" width="20" height="20">
<path d="M20 0H0V20H20V0Z" fill="white"/>
</mask>
<g mask="url(#mask0_241_71)">
<mask id="mask1_241_71" style="mask-type:luminance" maskUnits="userSpaceOnUse" x="0" y="0" width="20" height="20">
<path d="M20 0H0V20H20V0Z" fill="white"/>
</mask>
<g mask="url(#mask1_241_71)">
<mask id="mask2_241_71" style="mask-type:luminance" maskUnits="userSpaceOnUse" x="0" y="0" width="20" height="20">
<path d="M20 0H0V20H20V0Z" fill="white"/>
</mask>
<g mask="url(#mask2_241_71)">
<path d="M13.4825 18.3332H6.50846C3.4768 18.3332 1.66675 16.5199 1.66675 13.4832V6.50822C1.66675 3.47655 3.4768 1.6665 6.50846 1.6665H13.4917C14.1406 1.63341 14.7896 1.72998 15.4007 1.95062C16.0118 2.17126 16.5728 2.51152 17.0509 2.95149C17.489 3.42989 17.8274 3.99079 18.0461 4.60148C18.2649 5.21217 18.3597 5.86045 18.3251 6.50822V13.4915C18.3251 16.5231 16.515 18.3332 13.4825 18.3332ZM5.00089 13.5057C5.99543 14.1442 7.15237 14.4837 8.33423 14.484H8.3501C9.21975 14.504 10.0831 14.3332 10.8796 13.9835C11.6761 13.6338 12.3863 13.1137 12.9601 12.4599C13.9794 11.3 14.5475 9.81221 14.5608 8.26817C14.5608 8.17567 14.561 8.07899 14.5543 7.98649C14.9827 7.67749 15.3518 7.29386 15.6442 6.85398C15.2457 7.03149 14.8226 7.1475 14.3893 7.19812C14.8451 6.92512 15.1864 6.49613 15.35 5.99064C14.9207 6.24484 14.4512 6.42406 13.9617 6.52063C13.7579 6.30226 13.5112 6.12842 13.237 6.00997C12.9628 5.89151 12.6671 5.83107 12.3684 5.83235C11.8108 5.83112 11.2739 6.04379 10.8684 6.42653C10.5909 6.68878 10.3865 7.01881 10.2756 7.38417C10.1646 7.74953 10.151 8.13759 10.2359 8.50986C9.36783 8.46556 8.51878 8.23949 7.74361 7.84631C6.96844 7.45313 6.2845 6.90158 5.73596 6.22735C5.45794 6.70863 5.37307 7.27748 5.49853 7.81895C5.624 8.36041 5.95046 8.83407 6.41182 9.14402C6.06442 9.13287 5.72454 9.03888 5.42082 8.86987V8.89734C5.42213 9.40102 5.59691 9.88884 5.91561 10.2789C6.23431 10.6689 6.67758 10.9373 7.1709 11.039C6.98404 11.0899 6.79124 11.1157 6.59757 11.1157C6.45911 11.1156 6.32107 11.1023 6.18518 11.0757C6.32465 11.5098 6.59622 11.8895 6.96216 12.1616C7.32809 12.4337 7.77006 12.5847 8.22599 12.5932C7.45314 13.1992 6.49976 13.5292 5.51766 13.5307H5.51257C5.3414 13.5322 5.17111 13.5239 5.00089 13.5057Z" fill="#FABD6B"/>
</g>
</g>
</g>
</g>
<defs>
<clipPath id="clip0_241_71">
<rect width="20" height="20" fill="white"/>
</clipPath>
</defs>
</svg>
