<svg width="30" height="30" viewBox="0 0 30 30" fill="none" xmlns="http://www.w3.org/2000/svg">
<g clip-path="url(#clip0_56_1800)">
<path d="M26.25 5H22.375C22.0849 3.58927 21.3173 2.32168 20.2016 1.4109C19.0859 0.500113 17.6903 0.00181816 16.25 0L13.75 0C12.3097 0.00181816 10.9141 0.500113 9.79844 1.4109C8.68273 2.32168 7.91512 3.58927 7.625 5H3.75C3.41848 5 3.10054 5.1317 2.86612 5.36612C2.6317 5.60054 2.5 5.91848 2.5 6.25C2.5 6.58152 2.6317 6.89946 2.86612 7.13388C3.10054 7.3683 3.41848 7.5 3.75 7.5H5V23.75C5.00198 25.407 5.6611 26.9956 6.83277 28.1672C8.00445 29.3389 9.59301 29.998 11.25 30H18.75C20.407 29.998 21.9956 29.3389 23.1672 28.1672C24.3389 26.9956 24.998 25.407 25 23.75V7.5H26.25C26.5815 7.5 26.8995 7.3683 27.1339 7.13388C27.3683 6.89946 27.5 6.58152 27.5 6.25C27.5 5.91848 27.3683 5.60054 27.1339 5.36612C26.8995 5.1317 26.5815 5 26.25 5V5ZM13.75 2.5H16.25C17.0253 2.50095 17.7814 2.74172 18.4145 3.1893C19.0476 3.63689 19.5268 4.26936 19.7863 5H10.2137C10.4732 4.26936 10.9524 3.63689 11.5855 3.1893C12.2186 2.74172 12.9747 2.50095 13.75 2.5V2.5ZM22.5 23.75C22.5 24.7446 22.1049 25.6984 21.4017 26.4017C20.6984 27.1049 19.7446 27.5 18.75 27.5H11.25C10.2554 27.5 9.30161 27.1049 8.59835 26.4017C7.89509 25.6984 7.5 24.7446 7.5 23.75V7.5H22.5V23.75Z" fill="#D32C71"/>
<path d="M12.5 22.4992C12.8315 22.4992 13.1495 22.3676 13.3839 22.1331C13.6183 21.8987 13.75 21.5808 13.75 21.2493V13.7493C13.75 13.4177 13.6183 13.0998 13.3839 12.8654C13.1495 12.631 12.8315 12.4993 12.5 12.4993C12.1685 12.4993 11.8505 12.631 11.6161 12.8654C11.3817 13.0998 11.25 13.4177 11.25 13.7493V21.2493C11.25 21.5808 11.3817 21.8987 11.6161 22.1331C11.8505 22.3676 12.1685 22.4992 12.5 22.4992Z" fill="#D32C71"/>
<path d="M17.5 22.4992C17.8315 22.4992 18.1495 22.3676 18.3839 22.1331C18.6183 21.8987 18.75 21.5808 18.75 21.2493V13.7493C18.75 13.4177 18.6183 13.0998 18.3839 12.8654C18.1495 12.631 17.8315 12.4993 17.5 12.4993C17.1685 12.4993 16.8505 12.631 16.6161 12.8654C16.3817 13.0998 16.25 13.4177 16.25 13.7493V21.2493C16.25 21.5808 16.3817 21.8987 16.6161 22.1331C16.8505 22.3676 17.1685 22.4992 17.5 22.4992Z" fill="#D32C71"/>
</g>
<defs>
<clipPath id="clip0_56_1800">
<rect width="30" height="30" fill="white"/>
</clipPath>
</defs>
</svg>
