<svg width="101" height="100" viewBox="0 0 101 100" fill="none" xmlns="http://www.w3.org/2000/svg">
<path d="M78.8964 34.2083C78.509 33.8178 78.0482 33.5078 77.5404 33.2963C77.0327 33.0847 76.4881 32.9758 75.938 32.9758C75.388 32.9758 74.8434 33.0847 74.3356 33.2963C73.8279 33.5078 73.3671 33.8178 72.9797 34.2083L53.8964 53.2916C53.509 53.6821 53.0482 53.9921 52.5404 54.2037C52.0327 54.4152 51.4881 54.5241 50.938 54.5241C50.388 54.5241 49.8434 54.4152 49.3356 54.2037C48.8279 53.9921 48.3671 53.6821 47.9797 53.2916L28.8964 34.2083C28.509 33.8178 28.0482 33.5078 27.5404 33.2963C27.0327 33.0847 26.4881 32.9758 25.938 32.9758C25.388 32.9758 24.8434 33.0847 24.3356 33.2963C23.8279 33.5078 23.367 33.8178 22.9797 34.2083C22.2037 34.989 21.7681 36.045 21.7681 37.1458C21.7681 38.2466 22.2037 39.3026 22.9797 40.0833L42.1047 59.2083C44.4485 61.5491 47.6255 62.8639 50.938 62.8639C54.2506 62.8639 57.4276 61.5491 59.7714 59.2083L78.8964 40.0833C79.6724 39.3026 80.108 38.2466 80.108 37.1458C80.108 36.045 79.6724 34.989 78.8964 34.2083V34.2083Z" fill="#374957"/>
</svg>
