<svg width="50" height="50" viewBox="0 0 50 50" fill="none" xmlns="http://www.w3.org/2000/svg">
<rect x="0.5" y="0.5" width="49" height="49" rx="2.5" fill="#05032B" stroke="#6E6EFD"/>
<g clip-path="url(#clip0_18_1270)">
<path d="M14.6397 17.2299C14.1291 17.2312 13.6234 17.1313 13.1517 16.9359C12.6799 16.7405 12.2517 16.4535 11.8916 16.0915L9.89206 14.3121C9.63549 14.0834 9.48029 13.7621 9.46062 13.4189C9.44095 13.0757 9.55841 12.7388 9.78716 12.4822C10.0159 12.2257 10.3372 12.0705 10.6804 12.0508C11.0236 12.0311 11.3605 12.1486 11.6171 12.3773L13.6697 14.2085C13.7872 14.3405 13.9305 14.447 14.0907 14.5215C14.2509 14.5961 14.4247 14.637 14.6013 14.6419C14.7779 14.6467 14.9537 14.6154 15.1177 14.5498C15.2818 14.4841 15.4307 14.3857 15.5553 14.2603L20.2226 9.81704C20.4736 9.59361 20.8016 9.47647 21.1373 9.49037C21.4731 9.50427 21.7902 9.64811 22.0219 9.89153C22.2535 10.1349 22.3815 10.4589 22.3788 10.7949C22.376 11.1309 22.2428 11.4527 22.0072 11.6923L17.3593 16.1136C17.0016 16.4692 16.5772 16.7508 16.1106 16.9424C15.6439 17.1339 15.1441 17.2316 14.6397 17.2299ZM40.5406 14.6398C40.5406 14.2963 40.4042 13.9669 40.1613 13.7241C39.9184 13.4812 39.589 13.3447 39.2455 13.3447H26.2951C25.9516 13.3447 25.6222 13.4812 25.3794 13.7241C25.1365 13.9669 25.0001 14.2963 25.0001 14.6398C25.0001 14.9833 25.1365 15.3127 25.3794 15.5555C25.6222 15.7984 25.9516 15.9348 26.2951 15.9348H39.2455C39.589 15.9348 39.9184 15.7984 40.1613 15.5555C40.4042 15.3127 40.5406 14.9833 40.5406 14.6398ZM17.3593 26.4739L22.0072 22.0526C22.1369 21.9371 22.2421 21.7967 22.3165 21.6398C22.3908 21.4828 22.4328 21.3125 22.44 21.1389C22.4472 20.9654 22.4194 20.7922 22.3583 20.6296C22.2971 20.467 22.2039 20.3184 22.0842 20.1926C21.9645 20.0668 21.8206 19.9663 21.6613 19.8972C21.5019 19.8281 21.3303 19.7918 21.1566 19.7904C20.983 19.7889 20.8108 19.8225 20.6503 19.889C20.4898 19.9555 20.3444 20.0536 20.2226 20.1774L15.5605 24.6207C15.3139 24.8564 14.986 24.988 14.6449 24.988C14.3038 24.988 13.9758 24.8564 13.7293 24.6207L11.6702 22.5681C11.4259 22.3322 11.0988 22.2016 10.7592 22.2046C10.4197 22.2075 10.0948 22.3437 9.85473 22.5838C9.61462 22.8239 9.47842 23.1488 9.47547 23.4883C9.47252 23.8279 9.60306 24.155 9.83896 24.3992L11.8916 26.4519C12.6164 27.1769 13.5984 27.586 14.6235 27.5901C15.6486 27.5942 16.6339 27.193 17.3645 26.4739H17.3593ZM40.5406 25.0001C40.5406 24.6567 40.4042 24.3273 40.1613 24.0844C39.9184 23.8415 39.589 23.7051 39.2455 23.7051H26.2951C25.9516 23.7051 25.6222 23.8415 25.3794 24.0844C25.1365 24.3273 25.0001 24.6567 25.0001 25.0001C25.0001 25.3436 25.1365 25.673 25.3794 25.9159C25.6222 26.1588 25.9516 26.2952 26.2951 26.2952H39.2455C39.589 26.2952 39.9184 26.1588 40.1613 25.9159C40.4042 25.673 40.5406 25.3436 40.5406 25.0001ZM17.3593 36.8343L22.002 32.413C22.1318 32.2975 22.2369 32.1571 22.3113 32.0001C22.3856 31.8432 22.4276 31.6728 22.4348 31.4993C22.442 31.3258 22.4142 31.1525 22.3531 30.99C22.292 30.8274 22.1988 30.6788 22.079 30.5529C21.9593 30.4271 21.8155 30.3267 21.6561 30.2576C21.4968 30.1885 21.3251 30.1521 21.1515 30.1507C20.9778 30.1493 20.8056 30.1828 20.6451 30.2493C20.4847 30.3158 20.3392 30.4139 20.2175 30.5378L15.5553 34.9811C15.4307 35.1064 15.2818 35.2049 15.1177 35.2705C14.9537 35.3361 14.7779 35.3674 14.6013 35.3626C14.4247 35.3577 14.2509 35.3168 14.0907 35.2423C13.9305 35.1677 13.7872 35.0612 13.6697 34.9293L11.6171 33.0981C11.3605 32.8693 11.0236 32.7519 10.6804 32.7715C10.3372 32.7912 10.0159 32.9464 9.78716 33.203C9.55841 33.4595 9.44095 33.7965 9.46062 34.1396C9.48029 34.4828 9.63549 34.8041 9.89206 35.0329L11.8916 36.8123C12.6164 37.5372 13.5984 37.9464 14.6235 37.9505C15.6486 37.9546 16.6339 37.5534 17.3645 36.8343H17.3593ZM40.5406 35.3605C40.5406 35.017 40.4042 34.6876 40.1613 34.4448C39.9184 34.2019 39.589 34.0655 39.2455 34.0655H26.2951C25.9516 34.0655 25.6222 34.2019 25.3794 34.4448C25.1365 34.6876 25.0001 35.017 25.0001 35.3605C25.0001 35.704 25.1365 36.0334 25.3794 36.2762C25.6222 36.5191 25.9516 36.6556 26.2951 36.6556H39.2455C39.589 36.6556 39.9184 36.5191 40.1613 36.2762C40.4042 36.0334 40.5406 35.704 40.5406 35.3605Z" fill="white"/>
</g>
<defs>
<clipPath id="clip0_18_1270">
<rect width="31.0811" height="31.0811" fill="white" transform="translate(9.45972 9.45947)"/>
</clipPath>
</defs>
</svg>
