<svg width="100" height="100" viewBox="0 0 100 100" fill="none" xmlns="http://www.w3.org/2000/svg">
<path d="M22.0426 65.7917C22.4299 66.1822 22.8908 66.4922 23.3985 66.7037C23.9063 66.9153 24.4509 67.0242 25.0009 67.0242C25.551 67.0242 26.0956 66.9153 26.6033 66.7037C27.1111 66.4922 27.5719 66.1822 27.9592 65.7917L47.0426 46.7084C47.4299 46.3179 47.8908 46.0079 48.3985 45.7963C48.9063 45.5848 49.4509 45.4759 50.0009 45.4759C50.551 45.4759 51.0956 45.5848 51.6033 45.7963C52.1111 46.0079 52.5719 46.3179 52.9593 46.7084L72.0426 65.7917C72.4299 66.1822 72.8908 66.4922 73.3985 66.7037C73.9063 66.9153 74.4509 67.0242 75.0009 67.0242C75.551 67.0242 76.0956 66.9153 76.6033 66.7037C77.1111 66.4922 77.5719 66.1822 77.9593 65.7917C78.7353 65.011 79.1709 63.955 79.1709 62.8542C79.1709 61.7534 78.7353 60.6974 77.9593 59.9167L58.8343 40.7917C56.4905 38.4509 53.3134 37.1361 50.0009 37.1361C46.6884 37.1361 43.5113 38.4509 41.1676 40.7917L22.0426 59.9167C21.2665 60.6974 20.8309 61.7534 20.8309 62.8542C20.8309 63.955 21.2665 65.011 22.0426 65.7917V65.7917Z" fill="#8895A7"/>
</svg>
