<svg width="1450" height="365" viewBox="0 0 1450 365" fill="none" xmlns="http://www.w3.org/2000/svg">
<path d="M484.1 252.501C487.4 252.501 490.5 253.301 493.3 254.901C496.1 256.501 498.1 258.601 499.9 261.301L505.7 257.701C503.6 254.101 500.6 251.101 496.7 249.001C492.9 246.901 488.7 245.801 484.1 245.801C476.6 245.801 470.3 248.301 465.4 253.201C460.5 258.101 458 264.201 458 271.301C458 278.401 460.5 284.501 465.4 289.401C470.3 294.301 476.6 296.801 484.1 296.801C488.6 296.801 492.9 295.701 496.7 293.501C500.4 291.401 503.4 288.501 505.4 284.701C505.4 284.701 505.4 284.601 505.5 284.601C505.5 284.501 505.6 284.501 505.6 284.401L499.6 281.301C498.2 283.901 496.1 286.001 493.4 287.601C490.6 289.201 487.6 290.001 484.2 290.001C478.6 290.001 474 288.201 470.4 284.601C466.9 281.001 465.1 276.601 465.1 271.201C465.1 265.901 466.9 261.301 470.4 257.801C473.9 254.301 478.5 252.501 484.1 252.501Z" fill="#FABD6B"/>
<path d="M568.2 253.201C563.2 248.301 557 245.801 549.8 245.801C542.6 245.801 536.4 248.301 531.5 253.201C526.5 258.101 524 264.201 524 271.301C524 278.301 526.5 284.401 531.5 289.401C536.5 294.301 542.6 296.901 549.8 296.901C557 296.901 563.2 294.401 568.2 289.401C573.2 284.501 575.7 278.401 575.7 271.301C575.7 264.201 573.2 258.101 568.2 253.201ZM563.3 284.601C559.7 288.201 555.2 290.001 549.9 290.001C544.6 290.001 540 288.201 536.5 284.601C532.9 281.001 531.1 276.501 531.1 271.301C531.1 266.001 532.9 261.501 536.5 257.901C540.1 254.301 544.6 252.501 549.9 252.501C555.2 252.501 559.7 254.301 563.3 257.901C566.9 261.501 568.7 266.001 568.7 271.301C568.7 276.501 566.9 281.001 563.3 284.601Z" fill="#FABD6B"/>
<path d="M628.1 246.901L628.3 266.901V283.101L602.6 246.601L597.3 246.901L597.6 295.901L604.4 295.601L604.1 275.701V259.601L629.6 295.901H635.1L634.9 246.601L628.1 246.901Z" fill="#FABD6B"/>
<path d="M691.1 277.2C690.8 276.5 690.3 275.8 689.7 275.1C689.1 274.4 688.5 273.9 688 273.4C687.5 272.9 686.8 272.4 685.8 271.9C684.8 271.4 684.1 271 683.5 270.7C682.9 270.4 682 270.1 680.8 269.6L675.2 267.7C671.4 266.5 668.7 265.3 667.2 264.3C665.7 263.2 665 261.7 665 259.6C665 257.5 665.8 255.7 667.4 254.5C669 253.2 671.1 252.6 673.8 252.6C679 252.6 682.8 255.1 685.2 260.1L690.8 256.7C689.3 253.5 687.1 250.8 684.2 248.9C681.3 246.9 677.8 245.9 673.9 245.9C669.5 245.9 665.8 247.2 662.7 249.7C659.6 252.2 658.1 255.7 658.1 259.9C658.1 261.7 658.4 263.3 659.1 264.7C659.7 266.1 660.5 267.3 661.3 268.1C662.1 269 663.4 269.8 665 270.7C666.7 271.5 668 272.1 669.1 272.5L673.8 274.1C677.9 275.4 680.9 276.6 682.7 277.8C684.4 278.9 685.3 280.6 685.3 282.8C685.3 285 684.4 286.8 682.7 288.1C681 289.4 678.4 290.1 675.1 290.1C668.7 290.1 664.4 287.4 662.1 282.1C662 281.9 661.9 281.7 661.9 281.5C661.9 281.4 661.8 281.4 661.8 281.3L656 284.8C657.3 288.5 659.7 291.5 663 293.7C666.3 295.8 670.3 296.9 675 296.9C680.1 296.9 684.3 295.6 687.5 293.1C690.7 290.5 692.3 287 692.3 282.7C692.3 281.7 692.2 280.7 692 279.8C691.6 278.7 691.4 277.9 691.1 277.2Z" fill="#FABD6B"/>
<path d="M743.6 246.901V279.001C743.6 282.401 742.6 285.101 740.6 287.001C738.6 289.001 735.6 290.001 731.9 290.001C728.2 290.001 725.2 289.001 723.2 287.001C721.2 285.001 720.2 282.301 720.2 279.001L720 246.701L713.2 246.901V279.301C713.2 284.601 715 288.901 718.5 292.001C722 295.201 726.5 296.801 732 296.801C737.5 296.801 742.1 295.201 745.5 292.001C749 288.801 750.7 284.501 750.7 279.301L750.5 246.701L743.6 246.901Z" fill="#FABD6B"/>
<path d="M781.3 289.501L781 246.601L774.2 246.901L774.5 295.901H802.6L802.4 289.301L781.3 289.501Z" fill="#FABD6B"/>
<path d="M849.7 246.601L813.8 246.901L814 253.201L828.4 253.001L828.6 295.901H835.3L835.1 253.201L850 253.001L849.7 246.601Z" fill="#FABD6B"/>
<path d="M887.9 246.601L880.3 246.801L866.8 283.201L862.1 295.601H862.2L862.1 295.801L869.3 295.701L873.1 284.901L895.1 284.701L899.3 295.801H906.6L887.9 246.601ZM880.1 278.601H875.5L884.1 255.201L890.7 272.301L892.9 278.401L880.1 278.601Z" fill="#FABD6B"/>
<path d="M956.9 246.901L957.1 266.901V283.101L931.4 246.601L926.1 246.901L926.3 295.901L933.1 295.601L932.9 275.701V259.601L958.4 295.901H963.9L963.7 246.601L956.9 246.901Z" fill="#FABD6B"/>
<path d="M1020.3 253.001L1020.1 246.601L984.1 246.901L984.4 253.201L998.7 253.001L998.9 295.901H1005.7L1005.4 253.201L1020.3 253.001Z" fill="#FABD6B"/>
<path d="M602.5 189.9H573.7L574.8 96.4002H574.1L544 189.9H516.1L486.3 96.4002H485.6L486.7 189.9H458V70.7002H504.1L530.2 158.6H530.7L556.8 70.7002H602.4V189.9H602.5Z" fill="#083A2D"/>
<path d="M688.8 189.901H658.1V151.301L617.8 70.6006H650.8L673.8 124.401H674.3L696.4 70.6006H729.4L688.9 151.301V189.901H688.8Z" fill="#083A2D"/>
<path d="M888.8 155.7C888.8 182.7 878.3 191.3 845.8 191.3H841.1C794.3 191.3 788.1 185.3 788.1 158V151.9H816.7V156.3C816.7 165.9 820.4 168.4 838.3 168.4H841.6C856.9 168.4 859.5 165.6 859.5 156.8V154.7C859.5 146.1 857 142.2 833.4 140.7C794.8 138.1 788.5 129.1 788.5 104.6V101.8C788.5 78.6004 797.3 69.4004 832.2 69.4004H837.6C879.5 69.4004 885.7 77.5003 885.7 101.1V106.5H857.3V102.5C857.3 95.1004 854.8 92.0004 838.7 92.0004H834.8C820.4 92.0004 817.4 94.1004 817.4 102.2V104.5C817.4 112.6 819.5 115.2 843.4 117.3C882 120.8 888.8 128.2 888.8 152.6V155.7Z" fill="#083A2D"/>
<path d="M1020.3 189.901H987.9L981.2 166.701H937.5L930.8 189.901H899.4L938.3 70.6006H980.9L1020.3 189.901ZM974.5 144.301L959.8 92.6006H958.9L943.8 144.301H974.5Z" fill="#083A2D"/>
<path d="M1066.4 189.9H1035.9V70.7002H1118.3V94.7002H1066.4V123.8H1115V146.8H1066.4V189.9Z" fill="#083A2D"/>
<path d="M1222.8 189.9H1135.1V70.7002H1221V94.0002H1165.6V118H1217.3V140.1H1165.6V166.1H1222.8V189.9Z" fill="#083A2D"/>
<path d="M1297.9 189.901H1267.2V94.5006H1234.6V70.6006H1330.4V94.5006H1298V189.901H1297.9Z" fill="#083A2D"/>
<path d="M1409.1 189.901H1378.4V151.301L1338.1 70.6006H1371.1L1394.1 124.401H1394.6L1416.7 70.6006H1449.7L1409.2 151.301V189.901H1409.1Z" fill="#083A2D"/>
<path d="M257.7 116C257.5 115.5 257.3 115.1 257 114.5V114.3L256.2 112.9L256 112.4L255.8 112.1C252.9 107.1 248.7 102.9 243.5 99.9004C238.4 97.0004 232.6 95.4004 226.8 95.4004C214.7 95.4004 203.6 101.8 197.7 112.1C197 113.2 196.4 114.3 195.9 115.5L182.4 141.9L169.2 116.1C168.6 114.7 167.9 113.5 167.3 112.4C161.3 102 150.2 95.5004 138.2 95.5004C126.1 95.5004 115 101.8 109.2 112L109 112.2L108.9 112.5C108.6 113 108.3 113.5 108 114.1C107.8 114.6 107.5 115 107.3 115.5L62.2998 203.5H29.4998C28.5998 196.8 28.0998 189.9 28.0998 182.9C28.0998 97.9004 97.1998 28.7004 182.2 28.7004C262.4 28.7004 329.9 91.3003 335.9 171.1V172.3H362.6L363.8 172.1L363.7 170.9C357.5 75.6004 277.8 0.900391 182.2 0.900391C81.8998 0.900391 0.299805 82.6004 0.299805 182.9C0.299805 198.8 2.29981 214.4 6.39981 229.6L6.89981 231.3H79.2998L133.1 126.2C134.1 124.3 136 123.2 138.2 123.2C140.3 123.2 142.2 124.3 143.3 126.2L143.6 126.8L166.9 172.3L146.3 212.6C146.2 212.8 146.1 212.9 145.9 213.3L145.6 214L145.2 214.9C142.5 220.4 141.1 226.6 141.1 232.7C141.1 255.5 159.7 274.1 182.5 274.1C205.3 274.1 223.9 255.5 223.9 232.7C223.9 226.6 222.5 220.4 219.8 214.7L219.5 214.1C219.3 213.6 219 213 218.8 212.7L198.1 172.3L220.8 128H221.2L221.4 127.1L221.5 126.5L221.7 126.2C222.7 124.3 224.6 123.2 226.8 123.2C228.8 123.2 230.5 124.2 231.9 126.1L285.6 231.2H328.7C307.8 294.6 249.2 337 182.4 337C129.1 337 78.6998 308.7 50.7998 263L50.4998 262.4H18.7998L19.8998 264.6C51.0998 326.6 113.3 365 182.3 365C273.6 365 351.2 296.8 362.8 206.3L363.1 203.7H302.5L257.7 116ZM182.5 248.8C173.7 248.8 166.6 241.7 166.6 232.9C166.6 230.4 167.1 228 168.3 225.8V225.7L168.5 225.3L182.5 197.9L196.3 224.8L196.8 225.6V225.7C197.9 227.9 198.5 230.3 198.5 232.8C198.4 241.6 191.3 248.8 182.5 248.8Z" fill="#FABD6B"/>
</svg>
